<svg xmlns="http://www.w3.org/2000/svg" viewBox="0 0 293.97 293.97"><defs><style>.cls-1{fill:#e6e6e6;}.cls-1,.cls-2,.cls-3,.cls-4,.cls-5,.cls-6{stroke:#fff;stroke-miterlimit:10;stroke-width:3.4px;}.cls-2{fill:gray;}.cls-3{fill:#999;}.cls-4{fill:#ccc;}.cls-5{fill:#b3b3b3;}.cls-6{fill:#f2f2f2;}</style></defs><title>dbalone</title><g id="Layer_2" data-name="Layer 2"><g id="Layer_1-2" data-name="Layer 1"><path class="cls-1" d="M252.1,247.27c-6.15,1-12.62,1.9-19.35,2.69-.95,5.88-2,11.4-3.13,16.52A146,146,0,0,0,252.1,247.27Z"/><path class="cls-2" d="M128.37,70.28c11.43-.17,23-.19,34.44,0-.18-10.59-.41-20.58-.68-29.7-11-.19-22-.17-33,.05C128.85,49.71,128.59,59.69,128.37,70.28Z"/><path class="cls-3" d="M165.48,70.28c11.44.17,22.76.5,33.75,1-.59-10.47-1.32-20.35-2.18-29.4-10.55-.63-21.4-1.06-32.35-1.28C165,49.7,165.26,59.69,165.48,70.28Z"/><path class="cls-3" d="M199.7,40c10.46.68,20.6,1.57,30.25,2.67-1-6.12-2.06-11.85-3.25-17.11a145.13,145.13,0,0,0-13.63-7.95q-8.14-.86-16.59-1.49C197.7,23,198.77,31.06,199.7,40Z"/><path class="cls-4" d="M199.32,221c-11,.48-22.35.8-33.81,1-.21,10.65-.47,20.72-.77,29.93,11-.22,21.86-.64,32.44-1.27C198,241.49,198.74,231.52,199.32,221Z"/><path class="cls-3" d="M200.75,109.47c-11.3-.25-22.95-.42-34.72-.51.1,11.61.16,23.51.17,35.43l35,0C201.19,132.66,201,120.93,200.75,109.47Z"/><path class="cls-4" d="M201.21,147.16h-35c0,11.92,0,23.84-.15,35.49,11.79-.08,23.45-.24,34.76-.48C201.07,170.68,201.21,158.92,201.21,147.16Z"/><path class="cls-4" d="M165.52,72.75c.21,10.68.37,21.93.48,33.5,11.76.09,23.39.28,34.68.55-.31-11.41-.75-22.53-1.32-33.08C188.34,73.24,177,72.92,165.52,72.75Z"/><path class="cls-3" d="M200.74,184.85c-11.29.26-22.94.43-34.72.52-.1,11.61-.26,22.92-.46,33.68,11.49-.16,22.87-.47,33.91-.94C200,207.47,200.45,196.3,200.74,184.85Z"/><path class="cls-2" d="M163.28,185.38c-11.79.08-23.69.07-35.46,0,.1,11.61.26,22.92.46,33.68,11.49.16,23.1.18,34.61,0C163.06,208.32,163.19,197,163.28,185.38Z"/><path class="cls-1" d="M162.84,222c-11.47.14-23,.13-34.5,0,.21,10.65.47,20.72.78,29.93,11,.22,22.07.24,33.06,0C162.44,242.73,162.66,232.66,162.84,222Z"/><path class="cls-4" d="M193.52,14.29c-.32-1.86-.65-3.62-1-5.3a144.49,144.49,0,0,0-29.87-6.45c.27,3,.53,6.48.77,10.33C173.59,13.12,183.67,13.59,193.52,14.29Z"/><path class="cls-3" d="M130.3,278.65c10.26.25,20.6.26,30.88.06.35-7,.66-15.2.93-24.26-10.94.19-22,.17-32.9-.05C129.52,263.44,129.88,271.62,130.3,278.65Z"/><path class="cls-4" d="M215,275.36q6-3.19,11.67-6.92c1.25-5.56,2.39-11.65,3.41-18.18-9.67,1.09-19.83,2-30.31,2.65-.92,9-2,17.1-3.18,24.12C202.89,276.57,209,276,215,275.36Z"/><path class="cls-5" d="M202.22,71.41c10.93.52,21.51,1.2,31.52,2-.94-10.2-2.1-19.87-3.47-28.75-9.68-1.09-19.86-2-30.36-2.64C200.82,51.08,201.59,61,202.22,71.41Z"/><path class="cls-2" d="M196.3,278.93q-.48,2.67-1,5.09a144.37,144.37,0,0,0,15.17-6.34Q203.5,278.39,196.3,278.93Z"/><path class="cls-5" d="M164.61,38.48c10.91.22,21.71.66,32.22,1.3-.88-8.91-1.9-17-3-23.9-9.9-.7-20-1.17-30.27-1.41C163.93,21.4,164.3,29.5,164.61,38.48Z"/><path class="cls-6" d="M209.09,15.61a144.35,144.35,0,0,0-13.77-5.67c.3,1.45.6,3,.89,4.54Q202.73,15,209.09,15.61Z"/><path class="cls-5" d="M196.94,253.1c-10.53.64-21.36,1.07-32.29,1.29-.31,9.05-.68,17.23-1.09,24.26,10.26-.24,20.43-.72,30.36-1.41C195.06,270.21,196.07,262.08,196.94,253.1Z"/><path class="cls-5" d="M233.89,218.87c-10,.82-20.63,1.49-31.57,2-.61,10.51-1.36,20.46-2.26,29.58,10.52-.67,20.73-1.54,30.44-2.61C231.84,238.86,233,229.13,233.89,218.87Z"/><path class="cls-5" d="M236.9,147.16H204.31c0,11.74-.14,23.47-.43,34.95,11.24-.25,22.11-.58,32.37-1C236.68,170,236.89,158.56,236.9,147.16Z"/><path class="cls-6" d="M264.32,61.32q1.24,7.63,2.23,15.76,4.43.64,8.55,1.34A145.35,145.35,0,0,0,264.32,61.32Z"/><path class="cls-5" d="M203.83,109.54c.3,11.44.46,23.15.48,34.89l32.58.07c0-11.4-.27-22.79-.73-33.91C225.91,110.16,215.06,109.81,203.83,109.54Z"/><path class="cls-3" d="M238.84,108.13c10.13.48,19.63,1,28.28,1.7-.61-10.58-1.48-20.91-2.62-30.79-8.54-1.15-17.89-2.15-27.82-3C237.62,86.31,238.34,97.08,238.84,108.13Z"/><path class="cls-4" d="M268.17,144.62c0-10.86-.34-21.7-.91-32.32-8.66-.61-18.17-1.14-28.31-1.59.47,11.09.71,22.44.75,33.8Z"/><path class="cls-5" d="M130.41,280.54c.25,4.06.52,7.7.81,10.87a146.86,146.86,0,0,0,15.77.85c4.52,0,9-.22,13.39-.62.25-3.21.48-6.91.7-11.05C150.87,280.8,140.6,280.79,130.41,280.54Z"/><path class="cls-5" d="M161,12.82c-.21-3.92-.43-7.43-.67-10.5C156,1.92,151.5,1.7,147,1.7a146.86,146.86,0,0,0-15.76.85c-.27,3-.53,6.48-.77,10.32C140.61,12.63,150.87,12.61,161,12.82Z"/><path class="cls-2" d="M250.92,45.49a146,146,0,0,0-21.3-18c1.07,4.8,2.06,10,3,15.45C238.94,43.69,245.07,44.55,250.92,45.49Z"/><path class="cls-2" d="M276,213.87q-4.43.75-9.24,1.43c-.71,6-1.51,11.76-2.42,17.35A145.31,145.31,0,0,0,276,213.87Z"/><path class="cls-1" d="M270.52,144.63c8.12,0,15.42.09,21.72.14a145.61,145.61,0,0,0-3.69-30.6c-5.65-.62-12-1.19-18.94-1.7C270.18,123,270.48,133.82,270.52,144.63Z"/><path class="cls-3" d="M268.17,147.15H239.7c0,11.37-.22,22.73-.66,33.85,10.15-.42,19.67-.92,28.33-1.49C267.9,168.87,268.17,158,268.17,147.15Z"/><path class="cls-5" d="M236.15,183.72c-10.25.44-21.1.79-32.33,1.06-.3,11.43-.75,22.59-1.34,33.2,11-.49,21.6-1.13,31.66-1.92C235,205.69,235.69,194.83,236.15,183.72Z"/><path class="cls-1" d="M269.59,181.82c-.58,10.56-1.42,20.89-2.54,30.79q5.42-.74,10.36-1.57a144.22,144.22,0,0,0,11.06-30.93C282.84,180.73,276.51,181.3,269.59,181.82Z"/><path class="cls-2" d="M270.53,147.15c0,10.81-.27,21.61-.81,32.21,7.09-.49,13.55-1,19.28-1.64a145.81,145.81,0,0,0,3.27-30.58Z"/><path class="cls-3" d="M254.64,244.54q3.57-3.93,6.84-8.12c1.12-6.63,2.11-13.59,2.95-20.8-8.54,1.16-17.88,2.17-27.8,3-.94,10.23-2.11,19.94-3.49,28.9C240.66,246.66,247.85,245.66,254.64,244.54Z"/><path class="cls-2" d="M288,111.78a144.28,144.28,0,0,0-11.6-31q-4.57-.77-9.55-1.47c1.15,9.84,2,20.12,2.64,30.65C276.23,110.55,282.43,111.14,288,111.78Z"/><path class="cls-5" d="M203.76,106.88c11.22.29,22.06.66,32.3,1.12-.49-11.08-1.19-21.89-2.1-32.18-10-.81-20.64-1.47-31.6-2C203,84.39,203.43,95.48,203.76,106.88Z"/><path class="cls-4" d="M236.47,73.67c9.91.87,19.24,1.89,27.77,3.08-.8-6.64-1.72-13.06-2.76-19.21q-4-5.06-8.35-9.74c-6.41-1-13.17-2-20.22-2.81C234.31,53.86,235.5,63.5,236.47,73.67Z"/><path class="cls-4" d="M238.94,183.59c-.47,11.08-1.16,21.91-2.06,32.23,9.95-.82,19.31-1.79,27.86-2.91,1.1-9.94,1.94-20.32,2.51-30.93C258.59,182.61,249.08,183.14,238.94,183.59Z"/><path class="cls-4" d="M91.94,73.84c-.6,10.54-1.06,21.64-1.39,33,11.22-.28,22.82-.48,34.56-.59.13-11.56.31-22.81.55-33.48C114.21,73,102.9,73.33,91.94,73.84Z"/><path class="cls-3" d="M125.61,219c-.23-10.75-.41-22.06-.53-33.66-11.75-.1-23.36-.29-34.6-.56.3,11.44.75,22.59,1.33,33.2C102.8,218.47,114.14,218.81,125.61,219Z"/><path class="cls-4" d="M95.48,16.23q-7.41.58-14.59,1.34A145.19,145.19,0,0,0,65.1,27C64,31.89,63,37.2,62.06,42.86c9.58-1.13,19.67-2,30.09-2.76C93.12,31.2,94.23,23.16,95.48,16.23Z"/><path class="cls-5" d="M89.43,220.76C78.53,220.23,68,219.54,58,218.7c.94,10.24,2.09,20,3.46,28.91,9.63,1.1,19.79,2,30.27,2.69C90.85,241.19,90.07,231.25,89.43,220.76Z"/><path class="cls-3" d="M92,252.78c-10.44-.7-20.55-1.62-30.14-2.74,1,6.05,2,11.73,3.21,17a145.24,145.24,0,0,0,13.82,8.36q8,.87,16.41,1.53C94.09,269.87,93,261.74,92,252.78Z"/><path class="cls-5" d="M87.88,184.72c-11.18-.28-22-.65-32.13-1.09.47,11.09,1.15,21.93,2,32.26,10,.81,20.54,1.47,31.47,2C88.65,207.27,88.19,196.14,87.88,184.72Z"/><path class="cls-5" d="M58,76c-.93,10.26-1.64,21-2.14,32.1,10.16-.47,20.93-.86,32.1-1.16.34-11.38.82-22.46,1.45-33C78.48,74.48,67.94,75.16,58,76Z"/><path class="cls-3" d="M55.74,218.5c-9.86-.87-19.13-1.89-27.58-3.07.76,6.48,1.64,12.76,2.64,18.79q4,5.36,8.53,10.32c6.32,1,13,2,19.95,2.81C57.88,238.41,56.7,228.72,55.74,218.5Z"/><path class="cls-5" d="M43,45.49c5.37-.87,11-1.65,16.79-2.36q1.28-7.64,2.78-14.43A146.05,146.05,0,0,0,43,45.49Z"/><path class="cls-5" d="M41.86,247.27a146.08,146.08,0,0,0,20.75,18c-1.07-4.82-2.05-10-2.95-15.49C53.49,249,47.54,248.19,41.86,247.27Z"/><path class="cls-4" d="M98,279q.49,2.71,1,5.18a144.37,144.37,0,0,0,30,7c-.32-3.13-.62-6.7-.9-10.67C117.86,280.2,107.79,279.69,98,279Z"/><path class="cls-3" d="M98.06,14.46c9.81-.74,19.86-1.24,30-1.52q.41-5.64.86-10.12a144.37,144.37,0,0,0-30,7Q98.5,12.05,98.06,14.46Z"/><path class="cls-4" d="M125.67,221.92c-11.44-.19-22.74-.54-33.69-1,.61,10.51,1.36,20.46,2.24,29.59,10.53.66,21.37,1.12,32.34,1.37C126.21,242.63,125.91,232.57,125.67,221.92Z"/><path class="cls-4" d="M162.07,38.43c-.27-9-.59-17.08-.94-24-10.24-.21-20.56-.19-30.78.06-.42,6.93-.79,15-1.11,24C140.14,38.25,151.15,38.24,162.07,38.43Z"/><path class="cls-3" d="M193.61,279.13c-9.87.7-20,1.17-30.16,1.41-.25,4.07-.52,7.71-.8,10.88A144.49,144.49,0,0,0,192.52,285C192.9,283.13,193.26,281.19,193.61,279.13Z"/><path class="cls-2" d="M95.78,14.64c.26-1.37.53-2.68.8-4q-6,2.21-11.67,4.92Q90.28,15.07,95.78,14.64Z"/><path class="cls-3" d="M94.37,42c-.9,9-1.67,18.91-2.29,29.36,10.94-.52,22.22-.87,33.63-1.07.25-10.58.55-20.56.91-29.68C115.69,40.9,104.87,41.36,94.37,42Z"/><path class="cls-2" d="M126.66,254.33c-10.91-.26-21.7-.72-32.19-1.39.91,9,2,17.1,3.16,24.12,9.89.74,20,1.24,30.28,1.52C127.44,271.56,127,263.38,126.66,254.33Z"/><path class="cls-1" d="M83.47,277.68q6.38,3.11,13.1,5.6c-.31-1.44-.61-2.94-.9-4.5Q89.5,278.29,83.47,277.68Z"/><path class="cls-1" d="M163.42,147.16H127.65c0,11.92,0,23.84.15,35.49,11.79.08,23.7.09,35.5,0C163.38,171,163.42,159.09,163.42,147.16Z"/><path class="cls-4" d="M90,147.16c0,11.74.14,23.48.42,35,11.25.25,22.87.42,34.64.52-.11-11.64-.17-23.56-.17-35.47Z"/><path class="cls-4" d="M25.31,112.4c-.57,10.59-.87,21.4-.91,32.23l28.22-.11c0-11.34.28-22.66.76-33.73C43.31,111.24,33.87,111.78,25.31,112.4Z"/><path class="cls-5" d="M61.73,44.91c-1.39,8.87-2.57,18.52-3.53,28.7,9.94-.86,20.46-1.56,31.34-2.1.65-10.44,1.45-20.3,2.39-29.33C81.47,42.89,71.35,43.8,61.73,44.91Z"/><path class="cls-3" d="M55.67,76.19c-9.87.86-19.14,1.87-27.59,3-1.14,9.85-2,20.16-2.63,30.71,8.56-.66,18-1.24,28-1.73C54,97.18,54.72,86.43,55.67,76.19Z"/><path class="cls-3" d="M24.39,147.15c0,10.83.27,21.66.81,32.27,8.57.58,18,1.09,28.08,1.52-.44-11.1-.67-22.44-.67-33.78Z"/><path class="cls-2" d="M127.82,109c-.1,11.61-.16,23.51-.17,35.43h35.77c0-11.93-.05-23.83-.14-35.45C151.49,108.86,139.59,108.87,127.82,109Z"/><path class="cls-1" d="M127.84,106.26c11.76-.1,23.64-.1,35.42,0-.09-11.57-.23-22.83-.41-33.52-11.48-.14-23.06-.13-34.53,0C128.12,83.43,128,94.69,127.84,106.26Z"/><path class="cls-3" d="M90.48,109.53c-.3,11.44-.46,23.16-.48,34.9l34.89,0c0-11.91.07-23.81.19-35.41C113.33,109.08,101.72,109.26,90.48,109.53Z"/><path class="cls-1" d="M94.58,39.94c10.46-.68,21.23-1.14,32.12-1.4.37-9,.79-17.07,1.26-24-10.21.28-20.33.79-30.19,1.52C96.57,23,95.51,31,94.58,39.94Z"/><path class="cls-6" d="M18.87,78.42q3.64-.62,7.53-1.2.89-7.27,2-14.17A145.33,145.33,0,0,0,18.87,78.42Z"/><path class="cls-4" d="M53.39,183.52c-10.07-.46-19.5-1-28.06-1.63.58,10.58,1.42,20.93,2.52,30.85,8.46,1.14,17.75,2.12,27.63,3C54.57,205.39,53.87,194.58,53.39,183.52Z"/><path class="cls-5" d="M87.81,182.06c-.29-11.46-.44-23.18-.44-34.9H55c0,11.38.22,22.75.65,33.88C65.82,181.45,76.62,181.79,87.81,182.06Z"/><path class="cls-2" d="M26.21,215.16q-4.27-.62-8.22-1.29a145.28,145.28,0,0,0,10.4,17.05Q27.18,223.28,26.21,215.16Z"/><path class="cls-5" d="M55.73,110.68c-.46,11.1-.71,22.46-.74,33.83l32.37-.07c0-11.72.19-23.42.5-34.84C76.69,109.87,65.9,110.23,55.73,110.68Z"/><path class="cls-1" d="M25.9,212.47c-1.12-9.88-2-20.19-2.55-30.73-6.52-.5-12.5-1-17.86-1.64A144.22,144.22,0,0,0,16.56,211Q21,211.79,25.9,212.47Z"/><path class="cls-1" d="M22.41,144.64c0-10.78.35-21.55.92-32.09-6.55.49-12.55,1-17.91,1.63a145.61,145.61,0,0,0-3.69,30.6C7.76,144.72,14.7,144.68,22.41,144.64Z"/><path class="cls-2" d="M23.47,110.09c.62-10.51,1.5-20.77,2.66-30.59q-4.43.63-8.53,1.33A144.28,144.28,0,0,0,6,111.78C11.26,111.17,17.11,110.61,23.47,110.09Z"/><path class="cls-4" d="M59.5,45.17C53,46,46.77,46.83,40.83,47.8a146,146,0,0,0-10,11.95c-.91,5.53-1.73,11.27-2.45,17.19C36.8,75.74,46,74.7,55.9,73.82,56.88,63.66,58.08,54,59.5,45.17Z"/><path class="cls-2" d="M22.41,147.15H1.7A145.81,145.81,0,0,0,5,177.72c5.45.57,11.57,1.09,18.25,1.56C22.68,168.71,22.41,157.93,22.41,147.15Z"/></g></g></svg>