<svg xmlns="http://www.w3.org/2000/svg" viewBox="0 0 723.94 177"><defs><style>.cls-1,.cls-2,.cls-3,.cls-4,.cls-5,.cls-6,.cls-7{stroke:#000;stroke-miterlimit:10;stroke-width:2px;}.cls-2{fill:#e6e6e6;}.cls-3{fill:gray;}.cls-4{fill:#999;}.cls-5{fill:#ccc;}.cls-6{fill:#b3b3b3;}.cls-7{fill:#f2f2f2;}</style></defs><title>dbblack</title><g id="Layer_2" data-name="Layer 2"><g id="Layer_1-2" data-name="Layer 1"><path d="M207.54,104.18V96.11H239.2v8.07h-11v35.51h-9.77V104.18Z"/><path d="M270.29,96.11h9.77v43.58h-9.77V121.63H254.8v18.07H245V96.11h9.77v17.44h15.49Z"/><path d="M298.4,122.74v16.95h-9.77V96.11h15.83q7,0,10.86,3.91a12.91,12.91,0,0,1,3.89,9.44,14.41,14.41,0,0,1-2.12,7.39,11.6,11.6,0,0,1-6.92,5.09L320,139.69H308.57l-9-16.95Zm0-18.56v10.49h6.06a4.48,4.48,0,0,0,3.52-1.43,5.4,5.4,0,0,0,1.29-3.75,5.58,5.58,0,0,0-1.32-3.82,4.43,4.43,0,0,0-3.49-1.49Z"/><path d="M330.44,133.8q-6-6.34-6-16t6-16a20.07,20.07,0,0,1,29.2,0q5.92,6.3,5.92,16t-5.94,16a20,20,0,0,1-29.18,0Zm22.29-6.89q2.89-3.42,2.89-9.13t-2.89-9.12a10.42,10.42,0,0,0-15.43,0q-2.88,3.42-2.88,9.12t2.88,9.13a10.42,10.42,0,0,0,15.43,0Z"/><path d="M416.36,96.11h10.52l-11.2,43.58h-11.2l-7-27.62-7,27.62h-11.2L367.9,96.11h10.46l7,31.35,7.14-31.35h11.08L410.42,127Z"/><path d="M474.2,139.69,472,132.37h-14.4l-2.23,7.33h-10.4L458.88,96h11.89l13.89,43.71ZM460,124.3h9.48l-4.74-15.52Z"/><path d="M537.18,109.46a14.46,14.46,0,0,1-2.92,8.5,10.93,10.93,0,0,1-4.6,3.45,18,18,0,0,1-7.23,1.33h-6.06v16.95H506.6V96.11h15.83q7,0,10.86,3.91A12.91,12.91,0,0,1,537.18,109.46Zm-20.8,5.21h6.06a4.48,4.48,0,0,0,3.52-1.43,5.4,5.4,0,0,0,1.29-3.75,5.58,5.58,0,0,0-1.32-3.82,4.43,4.43,0,0,0-3.49-1.49h-6.06Z"/><path d="M568.56,139.69l-2.23-7.33h-14.4l-2.23,7.33H539.3L553.24,96h11.89L579,139.69ZM554.38,124.3h9.48l-4.74-15.52Z"/><path d="M593.59,122.74v16.95h-9.77V96.11h15.83q7,0,10.86,3.91a12.91,12.91,0,0,1,3.89,9.44,14.41,14.41,0,0,1-2.12,7.39,11.6,11.6,0,0,1-6.92,5.09l9.83,17.75H603.76l-9-16.95Zm0-18.56v10.49h6.06a4.48,4.48,0,0,0,3.52-1.43,5.4,5.4,0,0,0,1.29-3.75,5.58,5.58,0,0,0-1.32-3.82,4.43,4.43,0,0,0-3.49-1.49Z"/><path d="M619.25,104.18V96.11h31.66v8.07h-11v35.51h-9.77V104.18Z"/><path d="M677,139.69h-9.78v-14L653.31,96.11h11.09l7.72,19.68,7.66-19.68h11.09L677,125.66Z"/><path d="M700.28,96.27q3.54-3.82,9.77-3.82a14.09,14.09,0,0,1,10.06,3.6q3.83,3.6,3.83,10t-3.28,9.18q-3.29,2.83-9.52,3V124h-9.2V111.26h3.83a14.72,14.72,0,0,0,6.57-1.12q2.11-1.12,2.12-4.28a5.07,5.07,0,0,0-1.12-3.42,3.85,3.85,0,0,0-3.09-1.3,3.89,3.89,0,0,0-3.08,1.27,5,5,0,0,0-1.12,3.45h-9.2A13.12,13.12,0,0,1,700.28,96.27Zm6.49,43.42A5,5,0,0,1,703,138a6.29,6.29,0,0,1,0-8.26,5.14,5.14,0,0,1,7.6,0,6.29,6.29,0,0,1,0,8.26A5,5,0,0,1,706.77,139.69Z"/><path d="M220.25,45.33a4.36,4.36,0,0,0-3,1.07A3.92,3.92,0,0,0,216,49.47a4.65,4.65,0,0,0,1.1,3.23A7.08,7.08,0,0,0,220,54.57q1.76.66,3.92,1.25a41.83,41.83,0,0,1,4.3,1.44,18.38,18.38,0,0,1,3.89,2.1A9,9,0,0,1,235,62.91a13.4,13.4,0,0,1-3.09,15q-4.18,4-11,4t-11-3.57q-4.18-3.57-4.18-10.15h10.5q.4,5.26,5,5.26a4.51,4.51,0,0,0,3.35-1.22,4.23,4.23,0,0,0,1.21-3.1,4.36,4.36,0,0,0-1.1-3.07,7.55,7.55,0,0,0-2.86-1.88,39.48,39.48,0,0,0-3.92-1.28,37.21,37.21,0,0,1-4.3-1.47,20.38,20.38,0,0,1-3.89-2.1,8.75,8.75,0,0,1-2.86-3.51,12.42,12.42,0,0,1-1.1-5.42,12.44,12.44,0,0,1,4.21-9.84,15.7,15.7,0,0,1,10.76-3.7q6.55,0,10.58,3.23t4.21,10.18H224.69a6.15,6.15,0,0,0-1.41-3.67A3.94,3.94,0,0,0,220.25,45.33Z"/><path d="M247.5,75.53q-6-6.39-6-16.16t6-16.13a20.25,20.25,0,0,1,29.47,0q6,6.36,6,16.13t-6,16.16a20.15,20.15,0,0,1-29.44,0Zm22.49-7q2.91-3.44,2.91-9.21T270,50.16a10.52,10.52,0,0,0-15.57,0q-2.91,3.45-2.91,9.21t2.91,9.21a10.52,10.52,0,0,0,15.57,0Z"/><path d="M327,81.48h-9.86V67.32l-14-29.82h11.19l7.79,19.86,7.73-19.86H341L327,67.32Z"/><path d="M349.88,75.53q-6-6.39-6-16.16t6-16.13a20.25,20.25,0,0,1,29.47,0q6,6.36,6,16.13t-6,16.16a20.15,20.15,0,0,1-29.44,0Zm22.49-7q2.91-3.44,2.91-9.21t-2.91-9.21a10.52,10.52,0,0,0-15.57,0q-2.91,3.45-2.91,9.21t2.91,9.21a10.52,10.52,0,0,0,15.57,0Z"/><path d="M391.49,63.75V37.5h9.86V63.75a9.2,9.2,0,0,0,1.79,6.08A6.46,6.46,0,0,0,408.39,72a6.64,6.64,0,0,0,5.31-2.13,9,9,0,0,0,1.84-6.08V37.5h9.86V63.75a19.35,19.35,0,0,1-2.51,10.06A15.57,15.57,0,0,1,416.55,80a18.19,18.19,0,0,1-8.33,1.94,16.3,16.3,0,0,1-11.88-4.76Q391.49,72.4,391.49,63.75Z"/><path d="M496.06,37.5h10.61l-11.31,44h-11.3L477,53.6l-7,27.88h-11.3l-11.48-44h10.55l7,31.64L472,37.5h11.19l6.92,31.14Z"/><path d="M537.13,81.48l-2.25-7.39H520.34l-2.25,7.39H507.6l14.07-44.11h12l14,44.11Zm-14.3-15.54h9.57l-4.79-15.66Z"/><path d="M578.89,37.38h9.86V81.48h-9.86l-16.5-27.76V81.48h-9.86V37.38h9.86l16.5,27.75Z"/><path d="M594.63,45.65V37.5h32v8.15H615.51V81.48h-9.86V45.65Z"/><path d="M647,45.65V37.5h32v8.15H667.88V81.48H658V45.65Z"/><path d="M688.5,75.53q-6-6.39-6-16.16t6-16.13a20.25,20.25,0,0,1,29.47,0q6,6.36,6,16.13t-6,16.16a20.15,20.15,0,0,1-29.44,0Zm22.49-7q2.91-3.44,2.91-9.21T711,50.16a10.52,10.52,0,0,0-15.57,0q-2.91,3.45-2.91,9.21t2.91,9.21a10.52,10.52,0,0,0,15.57,0Z"/><circle class="cls-1" cx="88.5" cy="88.5" r="87.5"/><path class="cls-2" d="M150.36,147.51c-3.62.59-7.43,1.12-11.39,1.59-.56,3.46-1.17,6.71-1.84,9.72A85.94,85.94,0,0,0,150.36,147.51Z"/><path class="cls-3" d="M77.55,43.36c6.73-.1,13.53-.11,20.27,0-.11-6.23-.24-12.11-.4-17.48-6.45-.11-13-.1-19.4,0C77.83,31.26,77.68,37.13,77.55,43.36Z"/><path class="cls-4" d="M99.38,43.36c6.73.1,13.39.3,19.86.58-.35-6.16-.78-12-1.29-17.3-6.21-.37-12.59-.63-19-.76C99.1,31.25,99.26,37.13,99.38,43.36Z"/><path class="cls-4" d="M119.52,25.52c6.15.4,12.13.92,17.8,1.57-.58-3.6-1.21-7-1.91-10.07a85.4,85.4,0,0,0-8-4.68q-4.79-.5-9.76-.88C118.35,15.55,119,20.28,119.52,25.52Z"/><path class="cls-5" d="M119.3,132.05c-6.48.28-13.15.47-19.89.57-.12,6.27-.27,12.19-.45,17.61,6.46-.13,12.86-.38,19.09-.75C118.54,144.11,119,138.25,119.3,132.05Z"/><path class="cls-4" d="M120.14,66.42c-6.65-.15-13.5-.25-20.43-.3C99.77,73,99.8,80,99.8,87l20.61,0C120.4,80.07,120.31,73.17,120.14,66.42Z"/><path class="cls-5" d="M120.41,88.6H99.8c0,7,0,14-.09,20.89,6.94,0,13.8-.14,20.45-.28C120.33,102.44,120.41,95.52,120.41,88.6Z"/><path class="cls-5" d="M99.41,44.82c.12,6.28.22,12.91.28,19.71,6.92.06,13.77.16,20.41.32-.18-6.72-.44-13.26-.78-19.47C112.84,45.1,106.16,44.92,99.41,44.82Z"/><path class="cls-4" d="M120.13,110.78c-6.65.15-13.5.25-20.43.3-.06,6.83-.15,13.49-.27,19.82,6.76-.1,13.46-.28,20-.55C119.72,124.1,120,117.52,120.13,110.78Z"/><path class="cls-3" d="M98.09,111.1c-6.94,0-13.94,0-20.87,0,.06,6.83.15,13.49.27,19.82,6.76.1,13.59.1,20.36,0C98,124.59,98,117.93,98.09,111.1Z"/><path class="cls-2" d="M97.83,132.65c-6.75.08-13.56.08-20.3,0,.12,6.27.28,12.19.46,17.61,6.46.13,13,.14,19.46,0C97.6,144.84,97.73,138.92,97.83,132.65Z"/><path class="cls-5" d="M115.88,10.41c-.19-1.09-.39-2.13-.59-3.12A85,85,0,0,0,97.72,3.5c.16,1.78.31,3.82.45,6.08C104.15,9.72,110.09,10,115.88,10.41Z"/><path class="cls-4" d="M78.68,166c6,.14,12.13.16,18.17,0,.21-4.14.39-8.95.55-14.28-6.44.11-12.93.1-19.36,0C78.22,157,78.44,161.84,78.68,166Z"/><path class="cls-5" d="M128.55,164q3.54-1.88,6.87-4.07c.74-3.27,1.41-6.86,2-10.7-5.69.64-11.67,1.16-17.84,1.56-.54,5.28-1.16,10.06-1.87,14.19C121.4,164.76,125,164.43,128.55,164Z"/><path class="cls-6" d="M121,44c6.43.31,12.66.7,18.55,1.2-.56-6-1.24-11.69-2-16.92-5.7-.64-11.69-1.16-17.87-1.55C120.18,32.07,120.64,37.88,121,44Z"/><path class="cls-3" d="M117.52,166.15q-.28,1.57-.58,3a85,85,0,0,0,8.93-3.73Q121.76,165.83,117.52,166.15Z"/><path class="cls-6" d="M98.88,24.65c6.42.13,12.78.39,19,.77-.52-5.25-1.12-10-1.79-14.06-5.83-.41-11.8-.69-17.81-.83C98.47,14.6,98.69,19.36,98.88,24.65Z"/><path class="cls-7" d="M125,11.19a84.94,84.94,0,0,0-8.1-3.34c.18.85.35,1.74.52,2.67Q121.31,10.82,125,11.19Z"/><path class="cls-6" d="M117.9,150.95c-6.2.38-12.57.63-19,.76-.19,5.33-.4,10.14-.64,14.27,6-.14,12-.42,17.87-.83C116.79,161,117.39,156.23,117.9,150.95Z"/><path class="cls-6" d="M139.64,130.8c-5.9.48-12.14.87-18.58,1.17-.36,6.19-.8,12-1.33,17.41,6.19-.39,12.2-.9,17.91-1.54C138.44,142.57,139.1,136.84,139.64,130.8Z"/><path class="cls-6" d="M141.41,88.6H122.24c0,6.91-.08,13.81-.25,20.57,6.62-.15,13-.34,19-.58C141.28,102,141.41,95.31,141.41,88.6Z"/><path class="cls-7" d="M157.55,38.09q.73,4.49,1.31,9.28,2.61.38,5,.79A85.54,85.54,0,0,0,157.55,38.09Z"/><path class="cls-6" d="M122,66.46c.18,6.73.27,13.63.28,20.53l19.17,0c0-6.71-.16-13.41-.43-20C134.95,66.83,128.56,66.62,122,66.46Z"/><path class="cls-4" d="M142.55,65.64c6,.28,11.55.62,16.64,1-.36-6.23-.87-12.31-1.54-18.12-5-.68-10.53-1.26-16.37-1.76C141.84,52.8,142.26,59.13,142.55,65.64Z"/><path class="cls-5" d="M159.81,87.11c0-6.39-.2-12.77-.53-19-5.09-.36-10.69-.67-16.66-.94.27,6.53.42,13.2.44,19.89Z"/><path class="cls-6" d="M78.75,167.09c.15,2.39.31,4.53.48,6.4a86.42,86.42,0,0,0,9.28.5c2.66,0,5.29-.13,7.88-.36.15-1.89.28-4.07.41-6.5C90.79,167.25,84.74,167.24,78.75,167.09Z"/><path class="cls-6" d="M96.78,9.55c-.12-2.31-.26-4.37-.4-6.18C93.78,3.13,91.16,3,88.5,3a86.42,86.42,0,0,0-9.28.5c-.16,1.78-.31,3.81-.46,6.08C84.75,9.44,90.78,9.43,96.78,9.55Z"/><path class="cls-3" d="M149.67,28.77a85.93,85.93,0,0,0-12.53-10.59c.63,2.82,1.21,5.86,1.74,9.09C142.62,27.72,146.22,28.22,149.67,28.77Z"/><path class="cls-3" d="M164.41,127.86q-2.61.44-5.44.84c-.42,3.51-.89,6.92-1.42,10.21A85.51,85.51,0,0,0,164.41,127.86Z"/><path class="cls-2" d="M161.2,87.11,174,87.2a85.69,85.69,0,0,0-2.17-18c-3.32-.37-7.06-.7-11.15-1C161,74.41,161.18,80.76,161.2,87.11Z"/><path class="cls-4" d="M159.81,88.6H143.06c0,6.69-.13,13.38-.39,19.92,6-.25,11.57-.54,16.67-.88C159.66,101.38,159.81,95,159.81,88.6Z"/><path class="cls-6" d="M141,110.12c-6,.26-12.42.46-19,.62-.18,6.73-.44,13.29-.79,19.54,6.46-.29,12.71-.67,18.63-1.13C140.31,123,140.7,116.66,141,110.12Z"/><path class="cls-2" d="M160.65,109c-.34,6.21-.84,12.3-1.49,18.12q3.19-.44,6.1-.92a84.87,84.87,0,0,0,6.51-18.2C168.45,108.36,164.72,108.7,160.65,109Z"/><path class="cls-3" d="M161.2,88.6c0,6.36-.16,12.72-.48,19,4.17-.29,8-.61,11.35-1a85.8,85.8,0,0,0,1.92-18Z"/><path class="cls-4" d="M151.85,145.91q2.1-2.31,4-4.78c.66-3.9,1.24-8,1.73-12.24-5,.68-10.52,1.27-16.36,1.77-.56,6-1.24,11.74-2.05,17C143.63,147.16,147.86,146.57,151.85,145.91Z"/><path class="cls-3" d="M171.46,67.79a84.9,84.9,0,0,0-6.82-18.21q-2.69-.45-5.62-.87c.68,5.79,1.19,11.84,1.56,18C164.56,67.06,168.2,67.41,171.46,67.79Z"/><path class="cls-6" d="M121.91,64.9c6.6.17,13,.39,19,.66-.29-6.52-.7-12.88-1.23-18.93-5.91-.48-12.15-.87-18.59-1.16C121.45,51.66,121.72,58.19,121.91,64.9Z"/><path class="cls-5" d="M141.16,45.36c5.83.51,11.32,1.11,16.34,1.81-.47-3.91-1-7.69-1.62-11.3q-2.33-3-4.91-5.73c-3.77-.62-7.75-1.17-11.9-1.66C139.89,33.7,140.59,39.37,141.16,45.36Z"/><path class="cls-5" d="M142.61,110c-.28,6.52-.68,12.89-1.21,19,5.85-.48,11.36-1.05,16.39-1.71.65-5.85,1.14-12,1.48-18.2C154.18,109.46,148.58,109.78,142.61,110Z"/><path class="cls-5" d="M56.11,45.45c-.35,6.2-.63,12.73-.82,19.44,6.61-.17,13.43-.28,20.34-.35.07-6.8.18-13.42.32-19.7C69.21,45,62.56,45.16,56.11,45.45Z"/><path class="cls-4" d="M75.92,130.88c-.14-6.33-.24-13-.31-19.81-6.92-.06-13.75-.17-20.36-.33.18,6.73.44,13.29.78,19.54C62.5,130.57,69.17,130.77,75.92,130.88Z"/><path class="cls-5" d="M58.19,11.56q-4.36.34-8.59.79a85.44,85.44,0,0,0-9.3,5.53c-.65,2.9-1.24,6-1.79,9.35,5.64-.66,11.58-1.2,17.71-1.62C56.8,20.37,57.45,15.63,58.19,11.56Z"/><path class="cls-6" d="M54.63,131.91c-6.41-.31-12.61-.72-18.47-1.21.55,6,1.23,11.74,2,17,5.67.65,11.64,1.18,17.81,1.59C55.47,143.94,55,138.09,54.63,131.91Z"/><path class="cls-4" d="M56.16,150.76c-6.14-.41-12.09-1-17.74-1.61.57,3.56,1.2,6.9,1.89,10A85.47,85.47,0,0,0,48.45,164q4.74.51,9.66.9C57.37,160.81,56.72,156,56.16,150.76Z"/><path class="cls-6" d="M53.72,110.71c-6.58-.17-12.92-.38-18.91-.64.28,6.53.68,12.9,1.21,19,5.87.48,12.09.87,18.52,1.17C54.18,124,53.9,117.42,53.72,110.71Z"/><path class="cls-6" d="M36.12,46.72c-.55,6-1,12.38-1.26,18.89,6-.28,12.32-.51,18.89-.68.2-6.7.48-13.22.85-19.41C48.19,45.83,42,46.23,36.12,46.72Z"/><path class="cls-4" d="M34.81,130.59c-5.8-.51-11.25-1.11-16.23-1.8.45,3.82,1,7.51,1.55,11.06q2.37,3.15,5,6.08c3.72.61,7.64,1.17,11.74,1.65C36.06,142.3,35.37,136.6,34.81,130.59Z"/><path class="cls-6" d="M27.34,28.77c3.16-.51,6.46-1,9.88-1.39q.75-4.5,1.63-8.49A86,86,0,0,0,27.34,28.77Z"/><path class="cls-6" d="M26.64,147.52a86,86,0,0,0,12.21,10.59c-.63-2.84-1.21-5.89-1.74-9.12C33.48,148.55,30,148.06,26.64,147.52Z"/><path class="cls-5" d="M59.65,166.16q.29,1.6.59,3a85,85,0,0,0,17.64,4.13c-.19-1.84-.37-3.94-.53-6.28C71.36,166.89,65.43,166.59,59.65,166.16Z"/><path class="cls-4" d="M59.71,10.52c5.77-.43,11.69-.73,17.67-.9q.24-3.32.51-6A85,85,0,0,0,60.24,7.79Q60,9.1,59.71,10.52Z"/><path class="cls-5" d="M76,132.6c-6.73-.11-13.38-.32-19.83-.62.36,6.19.8,12,1.32,17.41,6.2.39,12.58.66,19,.81C76.28,144.78,76.1,138.86,76,132.6Z"/><path class="cls-5" d="M97.38,24.62c-.16-5.29-.35-10.05-.55-14.13-6-.12-12.1-.11-18.12,0-.25,4.08-.46,8.84-.65,14.13C84.48,24.52,91,24.51,97.38,24.62Z"/><path class="cls-4" d="M115.94,166.26c-5.81.41-11.75.69-17.75.83-.15,2.39-.31,4.54-.47,6.4a85,85,0,0,0,17.58-3.79C115.52,168.62,115.73,167.48,115.94,166.26Z"/><path class="cls-3" d="M58.37,10.62c.15-.81.31-1.58.47-2.33Q55.33,9.59,52,11.19,55.13,10.87,58.37,10.62Z"/><path class="cls-4" d="M57.54,26.74c-.53,5.32-1,11.13-1.35,17.28,6.44-.3,13.07-.51,19.79-.63.15-6.23.32-12.1.53-17.47C70.08,26.07,63.72,26.34,57.54,26.74Z"/><path class="cls-3" d="M76.54,151.67c-6.42-.15-12.77-.42-18.94-.82.54,5.28,1.16,10.06,1.86,14.19,5.82.43,11.79.73,17.82.9C77,161.81,76.75,157,76.54,151.67Z"/><path class="cls-2" d="M51.13,165.41q3.76,1.83,7.71,3.29c-.18-.85-.36-1.73-.53-2.65Q54.67,165.77,51.13,165.41Z"/><path class="cls-2" d="M98.18,88.61H77.12c0,7,0,14,.09,20.89,6.94,0,13.94.05,20.89,0C98.15,102.64,98.17,95.63,98.18,88.61Z"/><path class="cls-5" d="M55,88.6c0,6.91.08,13.82.25,20.57,6.62.15,13.46.25,20.38.31-.07-6.85-.1-13.86-.1-20.87Z"/><path class="cls-5" d="M16.9,68.15c-.34,6.23-.51,12.59-.54,19L33,87c0-6.67.17-13.34.45-19.85C27.49,67.47,21.94,67.78,16.9,68.15Z"/><path class="cls-6" d="M38.33,28.43c-.82,5.22-1.51,10.9-2.08,16.89,5.85-.51,12-.92,18.44-1.23.38-6.14.85-11.94,1.41-17.26C49.95,27.24,44,27.78,38.33,28.43Z"/><path class="cls-4" d="M34.77,46.84c-5.81.51-11.26,1.1-16.24,1.79-.67,5.8-1.19,11.86-1.55,18.07,5-.39,10.58-.73,16.5-1C33.78,59.19,34.21,52.87,34.77,46.84Z"/><path class="cls-4" d="M16.36,88.6c0,6.37.16,12.74.47,19,5,.34,10.6.64,16.53.89C33.1,101.95,33,95.28,33,88.6Z"/><path class="cls-3" d="M77.22,66.12C77.16,73,77.13,80,77.12,87H98.17c0-7,0-14-.08-20.86C91.15,66.06,84.15,66.07,77.22,66.12Z"/><path class="cls-2" d="M77.24,64.53c6.92-.06,13.91-.06,20.84,0-.06-6.81-.14-13.44-.24-19.72-6.76-.08-13.57-.08-20.32,0C77.4,51.1,77.3,57.73,77.24,64.53Z"/><path class="cls-4" d="M55.25,66.46C55.07,73.19,55,80.09,55,87L75.5,87c0-7,0-14,.11-20.84C68.69,66.19,61.86,66.3,55.25,66.46Z"/><path class="cls-2" d="M57.66,25.51c6.16-.4,12.5-.67,18.9-.83.22-5.28.46-10,.74-14.13-6,.17-12,.46-17.77.9C58.83,15.53,58.21,20.27,57.66,25.51Z"/><path class="cls-7" d="M13.11,48.15q2.14-.37,4.43-.7.52-4.28,1.17-8.34A85.52,85.52,0,0,0,13.11,48.15Z"/><path class="cls-5" d="M33.42,110c-5.93-.27-11.47-.59-16.51-1,.34,6.23.83,12.32,1.49,18.15,5,.67,10.44,1.25,16.26,1.74C34.11,122.87,33.7,116.51,33.42,110Z"/><path class="cls-6" d="M53.68,109.14c-.17-6.74-.26-13.64-.26-20.53H34.36c0,6.69.13,13.39.38,19.94C40.74,108.78,47.09,109,53.68,109.14Z"/><path class="cls-3" d="M17.43,128.62q-2.51-.36-4.84-.76a85.49,85.49,0,0,0,6.12,10Q18,133.4,17.43,128.62Z"/><path class="cls-6" d="M34.8,67.13c-.27,6.53-.42,13.21-.44,19.91l19.05,0c0-6.9.11-13.78.3-20.5C47.13,66.66,40.78,66.87,34.8,67.13Z"/><path class="cls-2" d="M17.24,127c-.66-5.81-1.16-11.88-1.5-18.08-3.84-.29-7.36-.61-10.51-1a84.87,84.87,0,0,0,6.51,18.2Q14.38,126.64,17.24,127Z"/><path class="cls-2" d="M15.19,87.12c0-6.34.2-12.68.54-18.88-3.85.29-7.38.61-10.54,1A85.69,85.69,0,0,0,3,87.2Z"/><path class="cls-3" d="M15.82,66.79c.36-6.18.88-12.22,1.56-18q-2.61.37-5,.78A84.9,84.9,0,0,0,5.54,67.78C8.63,67.42,12.07,67.09,15.82,66.79Z"/><path class="cls-5" d="M37,28.59c-3.82.46-7.49,1-11,1.55a85.94,85.94,0,0,0-5.9,7c-.54,3.25-1,6.63-1.44,10.12,5-.71,10.41-1.32,16.21-1.84C35.48,39.46,36.18,33.8,37,28.59Z"/><path class="cls-3" d="M15.19,88.6H3a85.8,85.8,0,0,0,1.92,18c3.21.34,6.81.64,10.74.92C15.35,101.29,15.19,94.94,15.19,88.6Z"/></g></g></svg>