<svg xmlns="http://www.w3.org/2000/svg" viewBox="0 0 721.94 172.99"><defs><style>.cls-1{fill:#e6e6e6;}.cls-1,.cls-2,.cls-3,.cls-4,.cls-5,.cls-6{stroke:#fff;stroke-miterlimit:10;stroke-width:2px;}.cls-2{fill:gray;}.cls-3{fill:#999;}.cls-4{fill:#ccc;}.cls-5{fill:#b3b3b3;}.cls-6{fill:#f2f2f2;}</style></defs><title>dbwhite</title><g id="Layer_2" data-name="Layer 2"><g id="Layer_1-2" data-name="Layer 1"><path d="M205.53,102.18V94.11h31.66v8.07h-11v35.51h-9.77V102.18Z"/><path d="M268.28,94.11h9.77v43.58h-9.77V119.62H252.79v18.07H243V94.11h9.77v17.44h15.49Z"/><path d="M296.4,120.74v16.95h-9.77V94.11h15.83q7,0,10.86,3.91a12.91,12.91,0,0,1,3.89,9.44,14.41,14.41,0,0,1-2.12,7.39,11.6,11.6,0,0,1-6.92,5.09L318,137.69H306.57l-9-16.95Zm0-18.56v10.49h6.06a4.48,4.48,0,0,0,3.52-1.43,5.4,5.4,0,0,0,1.29-3.75,5.58,5.58,0,0,0-1.32-3.82,4.43,4.43,0,0,0-3.49-1.49Z"/><path d="M328.43,131.79q-6-6.34-6-16t6-16a20.07,20.07,0,0,1,29.2,0q5.92,6.3,5.92,16t-5.94,16a20,20,0,0,1-29.18,0Zm22.29-6.89q2.89-3.42,2.89-9.13t-2.89-9.12a10.42,10.42,0,0,0-15.43,0q-2.88,3.42-2.88,9.12t2.88,9.13a10.42,10.42,0,0,0,15.43,0Z"/><path d="M414.36,94.11h10.52l-11.2,43.58h-11.2l-7-27.62-7,27.62h-11.2L365.89,94.11h10.46l7,31.35,7.14-31.35h11.08L408.41,125Z"/><path d="M472.2,137.69,470,130.36h-14.4l-2.23,7.33h-10.4L456.88,94h11.89l13.89,43.71ZM458,122.29h9.48l-4.74-15.52Z"/><path d="M535.17,107.46a14.46,14.46,0,0,1-2.92,8.5,10.93,10.93,0,0,1-4.6,3.45,18,18,0,0,1-7.23,1.33h-6.06v16.95H504.6V94.11h15.83q7,0,10.86,3.91A12.91,12.91,0,0,1,535.17,107.46Zm-20.8,5.21h6.06a4.48,4.48,0,0,0,3.52-1.43,5.4,5.4,0,0,0,1.29-3.75,5.58,5.58,0,0,0-1.32-3.82,4.43,4.43,0,0,0-3.49-1.49h-6.06Z"/><path d="M566.55,137.69l-2.23-7.33h-14.4l-2.23,7.33h-10.4L551.23,94h11.89L577,137.69Zm-14.17-15.39h9.48l-4.74-15.52Z"/><path d="M591.58,120.74v16.95h-9.77V94.11h15.83q7,0,10.86,3.91a12.91,12.91,0,0,1,3.89,9.44,14.41,14.41,0,0,1-2.12,7.39,11.6,11.6,0,0,1-6.92,5.09l9.83,17.75H601.75l-9-16.95Zm0-18.56v10.49h6.06a4.48,4.48,0,0,0,3.52-1.43,5.4,5.4,0,0,0,1.29-3.75,5.58,5.58,0,0,0-1.32-3.82,4.43,4.43,0,0,0-3.49-1.49Z"/><path d="M617.24,102.18V94.11H648.9v8.07h-11v35.51h-9.77V102.18Z"/><path d="M675,137.69h-9.78v-14L651.3,94.11h11.09l7.72,19.68,7.66-19.68h11.09L675,123.66Z"/><path d="M698.28,94.26q3.54-3.82,9.77-3.82A14.09,14.09,0,0,1,718.11,94q3.83,3.6,3.83,10t-3.28,9.18q-3.29,2.83-9.52,3V122h-9.2V109.25h3.83a14.72,14.72,0,0,0,6.57-1.12q2.11-1.12,2.12-4.28a5.07,5.07,0,0,0-1.12-3.42,3.85,3.85,0,0,0-3.09-1.3,3.89,3.89,0,0,0-3.08,1.27,5,5,0,0,0-1.12,3.45h-9.2A13.12,13.12,0,0,1,698.28,94.26Zm6.49,43.42A5,5,0,0,1,701,136a6.29,6.29,0,0,1,0-8.26,5.14,5.14,0,0,1,7.6,0,6.29,6.29,0,0,1,0,8.26A5,5,0,0,1,704.77,137.69Z"/><path d="M218.24,43.33a4.36,4.36,0,0,0-3,1.07A3.92,3.92,0,0,0,214,47.46a4.65,4.65,0,0,0,1.1,3.23A7.08,7.08,0,0,0,218,52.57q1.76.66,3.92,1.25a41.83,41.83,0,0,1,4.3,1.44,18.38,18.38,0,0,1,3.89,2.1A9,9,0,0,1,233,60.9a13.4,13.4,0,0,1-3.09,15q-4.18,4-11,4t-11-3.57q-4.18-3.57-4.18-10.15h10.5q.4,5.26,5,5.26a4.51,4.51,0,0,0,3.35-1.22,4.23,4.23,0,0,0,1.21-3.1,4.36,4.36,0,0,0-1.1-3.07,7.55,7.55,0,0,0-2.86-1.88,39.48,39.48,0,0,0-3.92-1.28,37.21,37.21,0,0,1-4.3-1.47,20.38,20.38,0,0,1-3.89-2.1,8.75,8.75,0,0,1-2.86-3.51,12.42,12.42,0,0,1-1.1-5.42,12.44,12.44,0,0,1,4.21-9.84,15.7,15.7,0,0,1,10.76-3.7q6.55,0,10.58,3.23t4.21,10.18H222.69a6.15,6.15,0,0,0-1.41-3.67A3.94,3.94,0,0,0,218.24,43.33Z"/><path d="M245.5,73.53q-6-6.39-6-16.16t6-16.13a20.25,20.25,0,0,1,29.47,0q6,6.36,6,16.13t-6,16.16a20.15,20.15,0,0,1-29.44,0Zm22.49-7q2.91-3.44,2.91-9.21T268,48.15a10.52,10.52,0,0,0-15.57,0q-2.91,3.45-2.91,9.21t2.91,9.21a10.52,10.52,0,0,0,15.57,0Z"/><path d="M325,79.48h-9.86V65.32l-14-29.82h11.19l7.79,19.86,7.73-19.86H339L325,65.32Z"/><path d="M347.87,73.53q-6-6.39-6-16.16t6-16.13a20.25,20.25,0,0,1,29.47,0q6,6.36,6,16.13t-6,16.16a20.15,20.15,0,0,1-29.44,0Zm22.49-7q2.91-3.44,2.91-9.21t-2.91-9.21a10.52,10.52,0,0,0-15.57,0q-2.91,3.45-2.91,9.21t2.91,9.21a10.52,10.52,0,0,0,15.57,0Z"/><path d="M389.49,61.75V35.49h9.86V61.75a9.2,9.2,0,0,0,1.79,6.08A6.46,6.46,0,0,0,406.39,70a6.64,6.64,0,0,0,5.31-2.13,9,9,0,0,0,1.84-6.08V35.49h9.86V61.75a19.35,19.35,0,0,1-2.51,10.06A15.57,15.57,0,0,1,414.55,78a18.19,18.19,0,0,1-8.33,1.94,16.3,16.3,0,0,1-11.88-4.76Q389.49,70.39,389.49,61.75Z"/><path d="M494.06,35.49h10.61l-11.31,44h-11.3L475,51.6l-7,27.88h-11.3l-11.48-44H455.7l7,31.64,7.21-31.64h11.19l6.92,31.14Z"/><path d="M535.12,79.48l-2.25-7.39H518.34l-2.25,7.39h-10.5l14.07-44.11h12l14,44.11Zm-14.3-15.54h9.57l-4.79-15.66Z"/><path d="M576.88,35.37h9.86V79.48h-9.86l-16.5-27.76V79.48h-9.86V35.37h9.86l16.5,27.75Z"/><path d="M592.63,43.64V35.49h32v8.15H613.51V79.48h-9.86V43.64Z"/><path d="M645,43.64V35.49h32v8.15H665.88V79.48H656V43.64Z"/><path d="M686.5,73.53q-6-6.39-6-16.16t6-16.13a20.25,20.25,0,0,1,29.47,0q6,6.36,6,16.13t-6,16.16a20.15,20.15,0,0,1-29.44,0Zm22.49-7q2.91-3.44,2.91-9.21T709,48.15a10.52,10.52,0,0,0-15.57,0q-2.91,3.45-2.91,9.21t2.91,9.21a10.52,10.52,0,0,0,15.57,0Z"/><path class="cls-1" d="M148.36,145.51c-3.62.59-7.43,1.12-11.39,1.59-.56,3.46-1.17,6.71-1.84,9.72A85.94,85.94,0,0,0,148.36,145.51Z"/><path class="cls-2" d="M75.54,41.36c6.73-.1,13.53-.11,20.27,0-.11-6.23-.24-12.11-.4-17.48-6.45-.11-13-.1-19.4,0C75.83,29.25,75.67,35.13,75.54,41.36Z"/><path class="cls-3" d="M97.38,41.36c6.73.1,13.39.3,19.86.58-.35-6.16-.78-12-1.29-17.3-6.21-.37-12.59-.63-19-.76C97.1,29.25,97.25,35.13,97.38,41.36Z"/><path class="cls-3" d="M117.52,23.52c6.15.4,12.13.92,17.8,1.57-.58-3.6-1.21-7-1.91-10.07a85.4,85.4,0,0,0-8-4.68q-4.79-.5-9.76-.88C116.34,13.54,117,18.28,117.52,23.52Z"/><path class="cls-4" d="M117.29,130c-6.48.28-13.15.47-19.89.57-.12,6.27-.27,12.19-.45,17.61,6.46-.13,12.86-.38,19.09-.75C116.53,142.11,117,136.25,117.29,130Z"/><path class="cls-3" d="M118.13,64.42c-6.65-.15-13.5-.25-20.43-.3.06,6.83.09,13.84.1,20.85l20.61,0C118.39,78.07,118.3,71.16,118.13,64.42Z"/><path class="cls-4" d="M118.41,86.6H97.8c0,7,0,14-.09,20.89,6.94,0,13.8-.14,20.45-.28C118.33,100.44,118.4,93.52,118.41,86.6Z"/><path class="cls-4" d="M97.41,42.81c.12,6.28.22,12.91.28,19.71,6.92.06,13.77.16,20.41.32-.18-6.72-.44-13.26-.78-19.47C110.83,43.1,104.15,42.91,97.41,42.81Z"/><path class="cls-3" d="M118.13,108.78c-6.65.15-13.5.25-20.43.3-.06,6.83-.15,13.49-.27,19.82,6.76-.1,13.46-.28,20-.55C117.71,122.09,118,115.52,118.13,108.78Z"/><path class="cls-2" d="M96.09,109.09c-6.94,0-13.94,0-20.87,0,.06,6.83.15,13.49.27,19.82,6.76.1,13.59.1,20.36,0C96,122.59,96,115.93,96.09,109.09Z"/><path class="cls-1" d="M95.83,130.64c-6.75.08-13.56.08-20.3,0,.12,6.27.28,12.19.46,17.61,6.46.13,13,.14,19.46,0C95.59,142.84,95.72,136.91,95.83,130.64Z"/><path class="cls-4" d="M113.88,8.41c-.19-1.09-.39-2.13-.59-3.12A85,85,0,0,0,95.71,1.5c.16,1.78.31,3.82.45,6.08C102.15,7.72,108.08,8,113.88,8.41Z"/><path class="cls-3" d="M76.68,164c6,.14,12.13.16,18.17,0,.21-4.14.39-8.95.55-14.28-6.44.11-12.93.1-19.36,0C76.22,155,76.43,159.84,76.68,164Z"/><path class="cls-4" d="M126.55,162q3.54-1.88,6.87-4.07c.74-3.27,1.41-6.86,2-10.7-5.69.64-11.67,1.16-17.84,1.56-.54,5.28-1.16,10.06-1.87,14.19C119.39,162.75,123,162.42,126.55,162Z"/><path class="cls-5" d="M119,42c6.43.31,12.66.7,18.55,1.2-.56-6-1.24-11.69-2-16.92-5.7-.64-11.69-1.16-17.87-1.55C118.18,30.06,118.63,35.87,119,42Z"/><path class="cls-2" d="M115.52,164.14q-.28,1.57-.58,3a85,85,0,0,0,8.93-3.73Q119.76,163.82,115.52,164.14Z"/><path class="cls-5" d="M96.87,22.64c6.42.13,12.78.39,19,.77-.52-5.25-1.12-10-1.79-14.06-5.83-.41-11.8-.69-17.81-.83C96.47,12.59,96.68,17.36,96.87,22.64Z"/><path class="cls-6" d="M123,9.19a84.94,84.94,0,0,0-8.1-3.34c.18.85.35,1.74.52,2.67Q119.3,8.81,123,9.19Z"/><path class="cls-5" d="M115.89,148.94c-6.2.38-12.57.63-19,.76-.19,5.33-.4,10.14-.64,14.27,6-.14,12-.42,17.87-.83C114.79,159,115.38,154.23,115.89,148.94Z"/><path class="cls-5" d="M137.64,128.8c-5.9.48-12.14.87-18.58,1.17-.36,6.19-.8,12-1.33,17.41,6.19-.39,12.2-.9,17.91-1.54C136.43,140.56,137.1,134.84,137.64,128.8Z"/><path class="cls-5" d="M139.41,86.6H120.23c0,6.91-.08,13.81-.25,20.57,6.62-.15,13-.34,19-.58C139.28,100,139.4,93.31,139.41,86.6Z"/><path class="cls-6" d="M155.55,36.08q.73,4.49,1.31,9.28,2.61.38,5,.79A85.54,85.54,0,0,0,155.55,36.08Z"/><path class="cls-5" d="M119.95,64.46c.18,6.73.27,13.63.28,20.53l19.17,0c0-6.71-.16-13.41-.43-20C132.94,64.82,126.56,64.62,119.95,64.46Z"/><path class="cls-3" d="M140.55,63.63c6,.28,11.55.62,16.64,1-.36-6.23-.87-12.31-1.54-18.12-5-.68-10.53-1.26-16.37-1.76C139.83,50.79,140.26,57.13,140.55,63.63Z"/><path class="cls-4" d="M157.81,85.1c0-6.39-.2-12.77-.53-19-5.09-.36-10.69-.67-16.66-.94.27,6.53.42,13.2.44,19.89Z"/><path class="cls-5" d="M76.74,165.09c.15,2.39.31,4.53.48,6.4a86.42,86.42,0,0,0,9.28.5c2.66,0,5.29-.13,7.88-.36.15-1.89.28-4.07.41-6.5C88.78,165.24,82.74,165.23,76.74,165.09Z"/><path class="cls-5" d="M94.77,7.55c-.12-2.31-.26-4.37-.4-6.18C91.78,1.13,89.15,1,86.5,1a86.42,86.42,0,0,0-9.28.5c-.16,1.78-.31,3.81-.46,6.08C82.75,7.43,88.78,7.42,94.77,7.55Z"/><path class="cls-2" d="M147.66,26.77a85.93,85.93,0,0,0-12.53-10.59c.63,2.82,1.21,5.86,1.74,9.09C140.61,25.71,144.22,26.21,147.66,26.77Z"/><path class="cls-2" d="M162.41,125.86q-2.61.44-5.44.84c-.42,3.51-.89,6.92-1.42,10.21A85.51,85.51,0,0,0,162.41,125.86Z"/><path class="cls-1" d="M159.19,85.11l12.78.08a85.69,85.69,0,0,0-2.17-18c-3.32-.37-7.06-.7-11.15-1C159,72.4,159.17,78.75,159.19,85.11Z"/><path class="cls-3" d="M157.81,86.59H141.06c0,6.69-.13,13.38-.39,19.92,6-.25,11.57-.54,16.67-.88C157.65,99.37,157.81,93,157.81,86.59Z"/><path class="cls-5" d="M139,108.11c-6,.26-12.42.46-19,.62-.18,6.73-.44,13.29-.79,19.54,6.46-.29,12.71-.67,18.63-1.13C138.3,121,138.7,114.65,139,108.11Z"/><path class="cls-1" d="M158.64,107c-.34,6.21-.84,12.3-1.49,18.12q3.19-.44,6.1-.92a84.87,84.87,0,0,0,6.51-18.2C166.44,106.35,162.72,106.69,158.64,107Z"/><path class="cls-2" d="M159.2,86.59c0,6.36-.16,12.72-.48,19,4.17-.29,8-.61,11.35-1a85.8,85.8,0,0,0,1.92-18Z"/><path class="cls-3" d="M149.85,143.91q2.1-2.31,4-4.78c.66-3.9,1.24-8,1.73-12.24-5,.68-10.52,1.27-16.36,1.77-.56,6-1.24,11.74-2.05,17C141.62,145.15,145.85,144.57,149.85,143.91Z"/><path class="cls-2" d="M169.46,65.78a84.9,84.9,0,0,0-6.82-18.21q-2.69-.45-5.62-.87c.68,5.79,1.19,11.84,1.56,18C162.55,65.05,166.2,65.4,169.46,65.78Z"/><path class="cls-5" d="M119.9,62.89c6.6.17,13,.39,19,.66-.29-6.52-.7-12.88-1.23-18.93-5.91-.48-12.15-.87-18.59-1.16C119.44,49.66,119.71,56.19,119.9,62.89Z"/><path class="cls-4" d="M139.15,43.35c5.83.51,11.32,1.11,16.34,1.81-.47-3.91-1-7.69-1.62-11.3q-2.33-3-4.91-5.73c-3.77-.62-7.75-1.17-11.9-1.66C137.89,31.69,138.58,37.37,139.15,43.35Z"/><path class="cls-4" d="M140.61,108c-.28,6.52-.68,12.89-1.21,19,5.85-.48,11.36-1.05,16.39-1.71.65-5.85,1.14-12,1.48-18.2C152.17,107.46,146.57,107.77,140.61,108Z"/><path class="cls-4" d="M54.1,43.45c-.35,6.2-.63,12.73-.82,19.44,6.61-.17,13.43-.28,20.34-.35.07-6.8.18-13.42.32-19.7C67.21,43,60.55,43.16,54.1,43.45Z"/><path class="cls-3" d="M73.92,128.87c-.14-6.33-.24-13-.31-19.81-6.92-.06-13.75-.17-20.36-.33.18,6.73.44,13.29.78,19.54C60.5,128.57,67.17,128.76,73.92,128.87Z"/><path class="cls-4" d="M56.19,9.55q-4.36.34-8.59.79a85.44,85.44,0,0,0-9.3,5.53c-.65,2.9-1.24,6-1.79,9.35,5.64-.66,11.58-1.2,17.71-1.62C54.8,18.36,55.45,13.63,56.19,9.55Z"/><path class="cls-5" d="M52.63,129.91c-6.41-.31-12.61-.72-18.47-1.21.55,6,1.23,11.74,2,17,5.67.65,11.64,1.18,17.81,1.59C53.46,141.93,53,136.09,52.63,129.91Z"/><path class="cls-3" d="M54.16,148.75c-6.14-.41-12.09-1-17.74-1.61.57,3.56,1.2,6.9,1.89,10A85.47,85.47,0,0,0,46.44,162q4.74.51,9.66.9C55.37,158.81,54.72,154,54.16,148.75Z"/><path class="cls-5" d="M51.71,108.7c-6.58-.17-12.92-.38-18.91-.64.28,6.53.68,12.9,1.21,19,5.87.48,12.09.87,18.52,1.17C52.17,122,51.9,115.42,51.71,108.7Z"/><path class="cls-5" d="M34.12,44.72c-.55,6-1,12.38-1.26,18.89,6-.28,12.32-.51,18.89-.68.2-6.7.48-13.22.85-19.41C46.18,43.83,40,44.23,34.12,44.72Z"/><path class="cls-3" d="M32.8,128.58c-5.8-.51-11.25-1.11-16.23-1.8.45,3.82,1,7.51,1.55,11.06q2.37,3.15,5,6.08c3.72.61,7.64,1.17,11.74,1.65C34.06,140.3,33.37,134.59,32.8,128.58Z"/><path class="cls-5" d="M25.33,26.77c3.16-.51,6.46-1,9.88-1.39q.75-4.5,1.63-8.49A86,86,0,0,0,25.33,26.77Z"/><path class="cls-5" d="M24.64,145.51A86,86,0,0,0,36.85,156.1c-.63-2.84-1.21-5.89-1.74-9.12C31.48,146.55,28,146.05,24.64,145.51Z"/><path class="cls-4" d="M57.65,164.16q.29,1.6.59,3a85,85,0,0,0,17.64,4.13c-.19-1.84-.37-3.94-.53-6.28C69.36,164.89,63.43,164.59,57.65,164.16Z"/><path class="cls-3" d="M57.71,8.51c5.77-.43,11.69-.73,17.67-.9q.24-3.32.51-6A85,85,0,0,0,58.24,5.79Q58,7.09,57.71,8.51Z"/><path class="cls-4" d="M74,130.6c-6.73-.11-13.38-.32-19.83-.62.36,6.19.8,12,1.32,17.41,6.2.39,12.58.66,19,.81C74.27,142.78,74.1,136.86,74,130.6Z"/><path class="cls-4" d="M95.37,22.61c-.16-5.29-.35-10.05-.55-14.13-6-.12-12.1-.11-18.12,0-.25,4.08-.46,8.84-.65,14.13C82.47,22.51,88.95,22.5,95.37,22.61Z"/><path class="cls-3" d="M113.93,164.26c-5.81.41-11.75.69-17.75.83-.15,2.39-.31,4.54-.47,6.4a85,85,0,0,0,17.58-3.79C113.51,166.61,113.73,165.47,113.93,164.26Z"/><path class="cls-2" d="M56.36,8.61c.15-.81.31-1.58.47-2.33Q53.32,7.59,50,9.18,53.13,8.87,56.36,8.61Z"/><path class="cls-3" d="M55.53,24.73c-.53,5.32-1,11.13-1.35,17.28,6.44-.3,13.07-.51,19.79-.63.15-6.23.32-12.1.53-17.47C68.08,24.07,61.71,24.34,55.53,24.73Z"/><path class="cls-2" d="M74.53,149.67c-6.42-.15-12.77-.42-18.94-.82.54,5.28,1.16,10.06,1.86,14.19,5.82.43,11.79.73,17.82.9C75,159.8,74.75,155,74.53,149.67Z"/><path class="cls-1" d="M49.12,163.41q3.76,1.83,7.71,3.29c-.18-.85-.36-1.73-.53-2.65Q52.67,163.77,49.12,163.41Z"/><path class="cls-1" d="M96.17,86.6H75.12c0,7,0,14,.09,20.89,6.94,0,13.94.05,20.89,0C96.15,100.64,96.17,93.62,96.17,86.6Z"/><path class="cls-4" d="M53,86.6c0,6.91.08,13.82.25,20.57,6.62.15,13.46.25,20.38.31-.07-6.85-.1-13.86-.1-20.87Z"/><path class="cls-4" d="M14.9,66.14c-.34,6.23-.51,12.59-.54,19L31,85c0-6.67.17-13.34.45-19.85C25.48,65.46,19.93,65.78,14.9,66.14Z"/><path class="cls-5" d="M36.33,26.43c-.82,5.22-1.51,10.9-2.08,16.89,5.85-.51,12-.92,18.44-1.23.38-6.14.85-11.94,1.41-17.26C47.94,25.24,42,25.77,36.33,26.43Z"/><path class="cls-3" d="M32.76,44.84c-5.81.51-11.26,1.1-16.24,1.79-.67,5.8-1.19,11.86-1.55,18.07,5-.39,10.58-.73,16.5-1C31.78,57.19,32.2,50.86,32.76,44.84Z"/><path class="cls-3" d="M14.36,86.59c0,6.37.16,12.74.47,19,5,.34,10.6.64,16.53.89C31.09,99.94,31,93.27,31,86.6Z"/><path class="cls-2" d="M75.22,64.12c-.06,6.83-.09,13.84-.1,20.85H96.17c0-7,0-14-.08-20.86C89.15,64.06,82.15,64.06,75.22,64.12Z"/><path class="cls-1" d="M75.23,62.53c6.92-.06,13.91-.06,20.84,0-.06-6.81-.14-13.44-.24-19.72-6.76-.08-13.57-.08-20.32,0C75.39,49.1,75.3,55.72,75.23,62.53Z"/><path class="cls-3" d="M53.24,64.45C53.07,71.19,53,78.08,53,85l20.53,0c0-7,0-14,.11-20.84C66.69,64.19,59.86,64.3,53.24,64.45Z"/><path class="cls-1" d="M55.66,23.5c6.16-.4,12.5-.67,18.9-.83.22-5.28.46-10,.74-14.13-6,.17-12,.46-17.77.9C56.83,13.53,56.2,18.26,55.66,23.5Z"/><path class="cls-6" d="M11.1,46.15q2.14-.37,4.43-.7.52-4.28,1.17-8.34A85.52,85.52,0,0,0,11.1,46.15Z"/><path class="cls-4" d="M31.42,108c-5.93-.27-11.47-.59-16.51-1,.34,6.23.83,12.32,1.49,18.15,5,.67,10.44,1.25,16.26,1.74C32.11,120.86,31.7,114.51,31.42,108Z"/><path class="cls-5" d="M51.67,107.13c-.17-6.74-.26-13.64-.26-20.53H32.36c0,6.69.13,13.39.38,19.94C38.73,106.78,45.09,107,51.67,107.13Z"/><path class="cls-2" d="M15.42,126.61q-2.51-.36-4.84-.76a85.49,85.49,0,0,0,6.12,10Q16,131.39,15.42,126.61Z"/><path class="cls-5" d="M32.8,65.13c-.27,6.53-.42,13.21-.44,19.91l19.05,0c0-6.9.11-13.78.3-20.5C45.13,64.66,38.78,64.87,32.8,65.13Z"/><path class="cls-1" d="M15.24,125c-.66-5.81-1.16-11.88-1.5-18.08-3.84-.29-7.36-.61-10.51-1a84.87,84.87,0,0,0,6.51,18.2Q12.37,124.63,15.24,125Z"/><path class="cls-1" d="M13.19,85.11c0-6.34.2-12.68.54-18.88-3.85.29-7.38.61-10.54,1A85.69,85.69,0,0,0,1,85.19Z"/><path class="cls-2" d="M13.81,64.79c.36-6.18.88-12.22,1.56-18q-2.61.37-5,.78A84.9,84.9,0,0,0,3.53,65.78C6.62,65.42,10.07,65.09,13.81,64.79Z"/><path class="cls-4" d="M35,26.58c-3.82.46-7.49,1-11,1.55a85.94,85.94,0,0,0-5.9,7c-.54,3.25-1,6.63-1.44,10.12,5-.71,10.41-1.32,16.21-1.84C33.47,37.46,34.18,31.79,35,26.58Z"/><path class="cls-2" d="M13.19,86.59H1a85.8,85.8,0,0,0,1.92,18c3.21.34,6.81.64,10.74.92C13.35,99.28,13.19,92.94,13.19,86.59Z"/></g></g></svg>